<svg width="24" height="24" viewBox="0 0 24 24" fill="none" xmlns="http://www.w3.org/2000/svg">
<path d="M21.9811 7.75594C21.857 7.61628 21.7047 7.50454 21.5342 7.4281C21.3637 7.35166 21.1789 7.31226 20.9921 7.3125H16.3121V7.125C16.3121 5.98125 15.8577 4.88435 15.049 4.0756C14.2402 3.26685 13.1433 2.8125 11.9996 2.8125C10.8558 2.8125 9.75894 3.26685 8.95019 4.0756C8.14144 4.88435 7.68709 5.98125 7.68709 7.125V7.3125H3.00709C2.82099 7.31122 2.63675 7.34953 2.46659 7.42488C2.29643 7.50024 2.14424 7.61092 2.02011 7.74958C1.89599 7.88824 1.80278 8.05172 1.74665 8.22915C1.69053 8.40659 1.67278 8.59393 1.69459 8.77875L3.03052 20.0287C3.06954 20.3491 3.2247 20.6439 3.4666 20.8575C3.7085 21.0711 4.02034 21.1885 4.34302 21.1875H19.6562C19.9788 21.1885 20.2907 21.0711 20.5326 20.8575C20.7745 20.6439 20.9296 20.3491 20.9687 20.0287L22.3046 8.77875C22.3257 8.5951 22.3079 8.40905 22.2521 8.23279C22.1964 8.05653 22.1041 7.89403 21.9811 7.75594ZM8.81209 7.125C8.81209 6.27962 9.14791 5.46887 9.74568 4.8711C10.3435 4.27332 11.1542 3.9375 11.9996 3.9375C12.845 3.9375 13.6557 4.27332 14.2535 4.8711C14.8513 5.46887 15.1871 6.27962 15.1871 7.125V7.3125H8.81209V7.125ZM19.8493 19.8966C19.8439 19.9435 19.821 19.9866 19.7852 20.0173C19.7494 20.0481 19.7033 20.0642 19.6562 20.0625H4.34302C4.29586 20.0642 4.24978 20.0481 4.21398 20.0173C4.17818 19.9866 4.1553 19.9435 4.1499 19.8966L2.81209 8.64656C2.80893 8.62076 2.8114 8.59457 2.81933 8.56981C2.82726 8.54505 2.84046 8.5223 2.85802 8.50312C2.87653 8.48216 2.89935 8.46544 2.92491 8.45412C2.95048 8.44279 2.97819 8.43712 3.00615 8.4375H7.68709V10.875C7.68709 11.0242 7.74635 11.1673 7.85184 11.2727C7.95733 11.3782 8.1004 11.4375 8.24959 11.4375C8.39877 11.4375 8.54184 11.3782 8.64733 11.2727C8.75282 11.1673 8.81209 11.0242 8.81209 10.875V8.4375H15.1871V10.875C15.1871 11.0242 15.2464 11.1673 15.3518 11.2727C15.4573 11.3782 15.6004 11.4375 15.7496 11.4375C15.8988 11.4375 16.0418 11.3782 16.1473 11.2727C16.2528 11.1673 16.3121 11.0242 16.3121 10.875V8.4375H20.9921C21.02 8.43712 21.0478 8.44279 21.0733 8.45412C21.0989 8.46544 21.1217 8.48216 21.1402 8.50312C21.1578 8.5223 21.171 8.54505 21.1789 8.56981C21.1868 8.59457 21.1893 8.62076 21.1861 8.64656L19.8493 19.8966Z" fill="#FFFAF5"/>
</svg>
