<svg width="24" height="24" viewBox="0 0 24 24" fill="none" xmlns="http://www.w3.org/2000/svg">
<path d="M21.3982 20.6027L16.5814 15.7859C17.955 14.2062 18.6616 12.155 18.5523 10.0645C18.4429 7.97399 17.5262 6.00761 15.9954 4.57983C14.4645 3.15206 12.4391 2.37444 10.3461 2.41089C8.25305 2.44735 6.25594 3.29502 4.77573 4.77524C3.29551 6.25546 2.44784 8.25256 2.41138 10.3456C2.37493 12.4386 3.15255 14.464 4.58032 15.9949C6.00809 17.5258 7.97447 18.4425 10.065 18.5518C12.1554 18.6611 14.2067 17.9545 15.7864 16.5809L20.6032 21.3977C20.7099 21.4971 20.8509 21.5512 20.9966 21.5486C21.1424 21.5461 21.2814 21.487 21.3845 21.384C21.4875 21.2809 21.5465 21.1419 21.5491 20.9961C21.5517 20.8504 21.4976 20.7094 21.3982 20.6027ZM3.56324 10.5002C3.56324 9.12814 3.97011 7.78685 4.73242 6.64598C5.49472 5.50511 6.57821 4.61592 7.84587 4.09083C9.11353 3.56575 10.5084 3.42837 11.8542 3.69605C13.1999 3.96374 14.4361 4.62447 15.4063 5.5947C16.3765 6.56492 17.0372 7.80107 17.3049 9.14681C17.5726 10.4926 17.4352 11.8875 16.9102 13.1551C16.3851 14.4228 15.4959 15.5063 14.355 16.2686C13.2141 17.0309 11.8728 17.4377 10.5007 17.4377C8.66148 17.4355 6.8982 16.7039 5.59765 15.4033C4.2971 14.1028 3.56547 12.3395 3.56324 10.5002Z" fill="#183754"/>
</svg>
