<svg width="1254" height="676" viewBox="0 0 1254 676" fill="none" xmlns="http://www.w3.org/2000/svg">
<path d="M687.053 218.616C859.33 305.77 1008.53 398.023 1110.49 476.716C1161.47 516.065 1200.62 552.009 1224.93 582.217C1237.09 597.322 1245.53 610.973 1249.88 622.88C1254.24 634.787 1254.5 644.896 1250.42 652.979C1246.33 661.062 1238.03 666.84 1225.85 670.384C1213.68 673.928 1197.69 675.221 1178.31 674.374C1139.57 672.68 1087.42 662.435 1025.51 644.676C901.716 609.16 739.004 543.617 566.727 456.463C394.451 369.308 245.251 277.056 143.295 198.363C92.3141 159.015 53.1639 123.07 28.8464 92.8622C16.6866 77.7569 8.25272 64.1066 3.89526 52.1995C-0.462294 40.292 -0.724925 30.1825 3.36435 22.0992C7.45368 14.0162 15.7534 8.23909 27.9276 4.69516C40.1016 1.1513 56.0951 -0.141276 75.4681 0.70571C114.211 2.39955 166.362 12.6446 228.265 30.4037C352.064 65.9198 514.777 131.462 687.053 218.616Z" stroke="#3E6282" stroke-width="0.9111"/>
</svg>
