<svg width="193" height="41" viewBox="0 0 193 41" fill="none" xmlns="http://www.w3.org/2000/svg">
<path d="M0 22.1364V0.881928H5.79134C7.88837 0.881928 9.67183 1.2053 11.1417 1.85205C12.6312 2.4988 13.8267 3.35133 14.7282 4.40965C15.6297 5.46796 16.2863 6.64387 16.6979 7.93736C17.129 9.21126 17.3446 10.4852 17.3446 11.7591C17.3446 13.3661 17.0604 14.8066 16.4921 16.0805C15.9433 17.3544 15.179 18.4421 14.1991 19.3436C13.2191 20.2452 12.0922 20.9409 10.8183 21.4309C9.56403 21.9012 8.23134 22.1364 6.82025 22.1364H0ZM2.85157 19.4024H6.2617C7.4376 19.4024 8.51552 19.2261 9.49544 18.8733C10.495 18.5205 11.3573 18.011 12.0824 17.3446C12.8272 16.6783 13.4053 15.8649 13.8169 14.9046C14.2285 13.9247 14.4342 12.8174 14.4342 11.5827C14.4342 10.2696 14.2187 9.12307 13.7875 8.14315C13.3563 7.14363 12.7684 6.31069 12.0236 5.64435C11.2789 4.978 10.4362 4.47824 9.49544 4.14507C8.55471 3.79229 7.56499 3.61591 6.52628 3.61591H2.85157V19.4024Z" fill="#FFFAF5"/>
<path d="M22.1344 0.881928H24.9859V22.1364H22.1344V0.881928Z" fill="#FFFAF5"/>
<path d="M28.9748 22.1364L38.2645 0H38.4409L47.7011 22.1364H44.438L37.5001 4.46844L39.5286 3.14555L31.7676 22.1364H28.9748ZM34.4134 14.0815H42.3214L43.2621 16.5509H33.5903L34.4134 14.0815Z" fill="#FFFAF5"/>
<path d="M51.7043 22.1364V0.205783H51.7337L62.8754 16.0217L61.6701 15.7865L72.7824 0.205783H72.8412V22.1364H70.019V6.67326L70.1954 8.11375L62.1698 19.4612H62.111L53.9679 8.11375L54.4676 6.79086V22.1364H51.7043Z" fill="#FFFAF5"/>
<path d="M78.9488 0.881928H92.7656V3.61591H81.8003V10.0834H91.5897V12.8174H81.8003V19.4024H93.1772V22.1364H78.9488V0.881928Z" fill="#FFFAF5"/>
<path d="M116.529 22.8126L100.096 6.14411L100.919 6.34989L100.978 22.1364H98.1261V0.23518H98.2731L114.53 16.9624L113.854 16.8155L113.795 0.881928H116.617V22.8126H116.529Z" fill="#FFFAF5"/>
<path d="M133.724 4.67422C132.999 4.30185 132.205 3.97848 131.343 3.7041C130.481 3.42972 129.638 3.29254 128.815 3.29254C127.678 3.29254 126.767 3.55711 126.081 4.08627C125.414 4.61543 125.081 5.32097 125.081 6.2029C125.081 6.86925 125.297 7.4376 125.728 7.90797C126.159 8.35873 126.728 8.7507 127.433 9.08387C128.139 9.41705 128.874 9.73062 129.638 10.0246C130.304 10.2794 130.961 10.5636 131.608 10.8771C132.254 11.1907 132.832 11.5827 133.342 12.053C133.871 12.5234 134.283 13.1015 134.577 13.7875C134.89 14.4734 135.047 15.326 135.047 16.3451C135.047 17.4622 134.763 18.4813 134.195 19.4024C133.646 20.3236 132.852 21.0487 131.813 21.5779C130.775 22.107 129.54 22.3716 128.109 22.3716C127.168 22.3716 126.267 22.2638 125.405 22.0482C124.562 21.8327 123.778 21.5583 123.053 21.2251C122.328 20.8723 121.681 20.5098 121.113 20.1374L122.377 17.9032C122.847 18.2363 123.386 18.5597 123.994 18.8733C124.601 19.1673 125.238 19.4122 125.904 19.6082C126.571 19.7846 127.217 19.8728 127.845 19.8728C128.511 19.8728 129.168 19.7552 129.814 19.52C130.481 19.2653 131.029 18.8831 131.461 18.3735C131.892 17.864 132.107 17.1878 132.107 16.3451C132.107 15.6199 131.911 15.0222 131.519 14.5518C131.147 14.0619 130.647 13.6503 130.02 13.3171C129.393 12.9644 128.727 12.6508 128.021 12.3764C127.355 12.1216 126.679 11.8473 125.993 11.5533C125.307 11.2397 124.67 10.8673 124.082 10.4362C123.494 9.9854 123.023 9.43664 122.671 8.7899C122.318 8.14315 122.141 7.35921 122.141 6.43808C122.141 5.32097 122.406 4.35085 122.935 3.52772C123.484 2.68498 124.229 2.02844 125.169 1.55807C126.11 1.06811 127.188 0.803535 128.403 0.764338C129.775 0.764338 130.98 0.930925 132.019 1.2641C133.077 1.59727 134.008 1.99904 134.812 2.4694L133.724 4.67422Z" fill="#FFFAF5"/>
<path d="M139.84 0.881928H142.691V22.1364H139.84V0.881928Z" fill="#FFFAF5"/>
<path d="M147.474 11.5239C147.474 10.054 147.748 8.6723 148.297 7.37881C148.865 6.06571 149.649 4.90941 150.649 3.90989C151.648 2.89077 152.795 2.09703 154.088 1.52868C155.402 0.940725 156.813 0.646749 158.322 0.646749C159.811 0.646749 161.203 0.940725 162.496 1.52868C163.809 2.09703 164.966 2.89077 165.965 3.90989C166.984 4.90941 167.778 6.06571 168.346 7.37881C168.915 8.6723 169.199 10.054 169.199 11.5239C169.199 13.033 168.915 14.444 168.346 15.7571C167.778 17.0702 166.994 18.2265 165.994 19.2261C164.995 20.206 163.839 20.9801 162.526 21.5485C161.212 22.0972 159.811 22.3716 158.322 22.3716C156.813 22.3716 155.402 22.0972 154.088 21.5485C152.795 20.9997 151.648 20.2354 150.649 19.2555C149.649 18.2755 148.865 17.129 148.297 15.8159C147.748 14.5028 147.474 13.0722 147.474 11.5239ZM150.414 11.5533C150.414 12.6704 150.62 13.7189 151.031 14.6988C151.443 15.6591 152.011 16.5117 152.736 17.2564C153.461 18.0012 154.304 18.5891 155.264 19.0203C156.225 19.4318 157.263 19.6376 158.381 19.6376C159.478 19.6376 160.507 19.4318 161.467 19.0203C162.428 18.5891 163.261 18.0012 163.966 17.2564C164.672 16.5117 165.23 15.6591 165.642 14.6988C166.053 13.7189 166.259 12.6606 166.259 11.5239C166.259 10.4068 166.053 9.35825 165.642 8.37833C165.23 7.37881 164.662 6.50668 163.937 5.76194C163.212 5.0172 162.369 4.43904 161.408 4.02748C160.448 3.59631 159.419 3.38073 158.322 3.38073C157.205 3.38073 156.166 3.59631 155.206 4.02748C154.245 4.45864 153.402 5.04659 152.677 5.79133C151.952 6.53608 151.394 7.40821 151.002 8.40773C150.61 9.38765 150.414 10.4362 150.414 11.5533Z" fill="#FFFAF5"/>
<path d="M192.406 22.8126L175.973 6.14411L176.796 6.34989L176.855 22.1364H174.003V0.23518H174.15L190.407 16.9624L189.731 16.8155L189.672 0.881928H192.494V22.8126H192.406Z" fill="#FFFAF5"/>
<path d="M5.29922 34.1779H5.85128V37.4368C5.85128 37.7277 5.79785 37.9748 5.691 38.1781C5.58415 38.3814 5.43353 38.5357 5.23912 38.6411C5.04471 38.7465 4.81543 38.7991 4.55127 38.7991C4.30196 38.7991 4.0801 38.7539 3.88569 38.6634C3.69128 38.5713 3.53843 38.4408 3.42713 38.2716C3.31582 38.1024 3.26017 37.9013 3.26017 37.6683H3.80333C3.80333 37.7974 3.83523 37.9102 3.89905 38.0067C3.96434 38.1017 4.05338 38.1759 4.16617 38.2293C4.27896 38.2827 4.40732 38.3094 4.55127 38.3094C4.71006 38.3094 4.84511 38.276 4.95641 38.2092C5.06771 38.1425 5.1523 38.0445 5.21018 37.9154C5.26954 37.7848 5.29922 37.6253 5.29922 37.4368V34.1779ZM25.7632 38.7368V34.1779H28.5145V34.6676H26.3152V36.208H28.3721V36.6978H26.3152V38.2471H28.5502V38.7368H25.7632ZM49.1432 38.7368L47.8966 34.1779H48.4576L49.4103 37.8909H49.4549L50.4254 34.1779H51.0487L52.0192 37.8909H52.0638L53.0165 34.1779H53.5775L52.3309 38.7368H51.761L50.7549 35.1039H50.7192L49.7131 38.7368H49.1432ZM73.0709 38.7368V34.1779H75.8222V34.6676H73.6229V36.208H75.6798V36.6978H73.6229V38.2471H75.8579V38.7368H73.0709ZM95.6228 38.7368V34.1779H96.1749V38.2471H98.2941V38.7368H95.6228ZM117.954 38.7368V34.1779H118.506V38.2471H120.626V38.7368H117.954ZM140.286 38.7368V34.1779H143.037V34.6676H140.838V36.208H142.895V36.6978H140.838V38.2471H143.073V38.7368H140.286ZM162.838 38.7368V34.1779H164.378C164.735 34.1779 165.027 34.2387 165.255 34.3604C165.484 34.4806 165.653 34.6461 165.763 34.8568C165.873 35.0676 165.928 35.3072 165.928 35.5758C165.928 35.8445 165.873 36.0826 165.763 36.2904C165.653 36.4982 165.485 36.6614 165.258 36.7801C165.031 36.8974 164.74 36.956 164.387 36.956H163.141V36.4574H164.369C164.613 36.4574 164.809 36.4217 164.957 36.3505C165.107 36.2793 165.215 36.1784 165.282 36.0478C165.35 35.9157 165.385 35.7584 165.385 35.5758C165.385 35.3933 165.35 35.2338 165.282 35.0972C165.214 34.9607 165.105 34.8554 164.955 34.7812C164.805 34.7055 164.607 34.6676 164.361 34.6676H163.39V38.7368H162.838ZM164.984 36.6889L166.106 38.7368H165.465L164.361 36.6889H164.984ZM185.108 34.1779H185.741L187.005 36.306H187.058L188.323 34.1779H188.955L187.308 36.858V38.7368H186.756V36.858L185.108 34.1779Z" fill="#FFFAF5"/>
</svg>
