<svg width="318" height="19" viewBox="0 0 318 19" fill="none" xmlns="http://www.w3.org/2000/svg">
<path d="M55.184 9.328C57.76 9.968 59.44 10.4 59.44 13.008C59.44 14.672 58.208 16.224 55.312 16.224C52.608 16.224 50.512 14.784 50.352 12.16H51.792C51.952 13.728 52.912 14.944 55.312 14.944C57.296 14.944 58 14.032 58 13.008C58 11.44 57.152 11.152 54.592 10.56C52.88 10.16 50.832 9.568 50.832 7.344C50.832 5.536 52.224 4.336 54.752 4.336C57.184 4.336 58.88 5.584 59.072 7.952H57.632C57.424 6.416 56.56 5.616 54.752 5.616C53.136 5.616 52.272 6.24 52.272 7.184C52.272 8.704 53.504 8.912 55.184 9.328ZM64.8956 7.616C66.3836 7.616 67.6316 8.432 67.6316 10.304V16H66.3516V10.624C66.3516 9.568 65.8556 8.736 64.5756 8.736C63.1356 8.736 62.1756 9.648 62.1756 10.912V16H60.8956V4.56H62.1756V8.816H62.2076C62.6396 8.24 63.5036 7.616 64.8956 7.616ZM72.8848 16.224C70.3888 16.224 68.8848 14.464 68.8848 11.92C68.8848 9.376 70.3888 7.616 72.8848 7.616C75.3648 7.616 76.8688 9.376 76.8688 11.92C76.8688 14.464 75.3648 16.224 72.8848 16.224ZM72.8848 15.104C74.7088 15.104 75.5888 13.664 75.5888 11.92C75.5888 10.176 74.7088 8.736 72.8848 8.736C71.0448 8.736 70.1648 10.176 70.1648 11.92C70.1648 13.664 71.0448 15.104 72.8848 15.104ZM82.0653 7.616C84.0813 7.616 85.7133 9.232 85.7133 11.92C85.7133 14.608 84.0813 16.224 82.0653 16.224C80.7213 16.224 79.9533 15.648 79.4733 14.944H79.4413V18.752H78.1613V7.84H79.4413V8.848H79.4733C79.9533 8.224 80.7213 7.616 82.0653 7.616ZM81.9053 15.104C83.5853 15.104 84.4333 13.52 84.4333 11.92C84.4333 10.32 83.5853 8.736 81.9053 8.736C80.3853 8.736 79.4413 10 79.4413 11.92C79.4413 13.84 80.3853 15.104 81.9053 15.104Z" fill="#183754"/>
<line x1="97.5" y1="2.18557e-08" x2="97.5" y2="19" stroke="#183754"/>
<path d="M116.36 8.336C116.152 7.248 115.32 5.616 112.936 5.616C110.216 5.616 109.08 7.968 109.08 10.272C109.08 12.592 110.216 14.944 112.936 14.944C115.336 14.944 116.264 13.312 116.36 11.872H117.8C117.544 14.4 115.752 16.224 112.936 16.224C109.8 16.224 107.64 13.728 107.64 10.272C107.64 6.832 109.8 4.336 112.936 4.336C115.736 4.336 117.528 6.16 117.8 8.336H116.36ZM124.216 9.92C124.216 9.28 123.864 8.736 122.552 8.736C121 8.736 120.488 9.184 120.408 10.368H119.128C119.208 8.8 120.184 7.616 122.552 7.616C124.104 7.616 125.496 8.224 125.496 10.192V14.16C125.496 14.8 125.608 15.152 126.424 15.056V15.952C126.088 16.064 125.912 16.08 125.672 16.08C124.904 16.08 124.44 15.872 124.216 14.976H124.184C123.672 15.744 122.76 16.224 121.416 16.224C119.768 16.224 118.728 15.28 118.728 13.904C118.728 12.048 120.104 11.568 122.216 11.168C123.592 10.912 124.216 10.736 124.216 9.92ZM121.544 15.104C123.064 15.104 124.216 14.416 124.216 12.848V11.488C123.976 11.728 123.192 11.952 122.328 12.128C120.744 12.464 120.008 12.864 120.008 13.84C120.008 14.64 120.488 15.104 121.544 15.104ZM130.776 8.96H129.176V13.872C129.176 14.8 129.688 14.96 130.776 14.88V16C130.488 16.064 130.152 16.096 129.816 16.096C128.728 16.096 127.896 15.664 127.896 14V8.96H126.696V7.84H127.896V5.12H129.176V7.84H130.776V8.96ZM135.508 15.104C137.14 15.104 137.748 14.048 137.892 13.488H139.172C138.756 15.008 137.588 16.224 135.556 16.224C133.076 16.224 131.572 14.48 131.572 11.92C131.572 9.2 133.108 7.616 135.492 7.616C138.052 7.616 139.3 9.36 139.3 12.256H132.852C132.852 13.728 133.732 15.104 135.508 15.104ZM135.492 8.736C133.956 8.736 132.852 9.824 132.852 11.136H138.02C138.02 9.824 137.028 8.736 135.492 8.736ZM146.376 7.84H147.656V15.552C147.656 17.728 146.28 18.832 144.04 18.832C141.799 18.832 140.472 17.648 140.344 16.256H141.624C141.784 17.088 142.456 17.712 143.976 17.712C145.496 17.712 146.376 17.056 146.376 15.536V14.304H146.344C145.864 15.008 145.096 15.584 143.752 15.584C141.736 15.584 140.104 14.288 140.104 11.6C140.104 8.912 141.736 7.616 143.752 7.616C145.096 7.616 145.864 8.224 146.344 8.848H146.376V7.84ZM143.911 14.464C145.432 14.464 146.376 13.52 146.376 11.6C146.376 9.68 145.432 8.736 143.911 8.736C142.232 8.736 141.384 10 141.384 11.6C141.384 13.2 142.232 14.464 143.911 14.464ZM152.947 16.224C150.451 16.224 148.947 14.464 148.947 11.92C148.947 9.376 150.451 7.616 152.947 7.616C155.427 7.616 156.931 9.376 156.931 11.92C156.931 14.464 155.427 16.224 152.947 16.224ZM152.947 15.104C154.771 15.104 155.651 13.664 155.651 11.92C155.651 10.176 154.771 8.736 152.947 8.736C151.107 8.736 150.227 10.176 150.227 11.92C150.227 13.664 151.107 15.104 152.947 15.104ZM161.792 7.616C162.096 7.616 162.32 7.632 162.544 7.664V8.944H162.512C160.736 8.656 159.504 9.904 159.504 11.648V16H158.224V7.84H159.504V9.456H159.536C159.968 8.384 160.624 7.616 161.792 7.616ZM164.508 6.256C164.156 6.256 163.708 5.984 163.708 5.488C163.708 4.992 164.156 4.72 164.508 4.72C164.876 4.72 165.308 4.992 165.308 5.488C165.308 5.984 164.876 6.256 164.508 6.256ZM163.868 7.84H165.148V16H163.868V7.84ZM170.54 15.104C172.172 15.104 172.78 14.048 172.924 13.488H174.204C173.788 15.008 172.62 16.224 170.588 16.224C168.108 16.224 166.604 14.48 166.604 11.92C166.604 9.2 168.14 7.616 170.524 7.616C173.084 7.616 174.332 9.36 174.332 12.256H167.884C167.884 13.728 168.764 15.104 170.54 15.104ZM170.524 8.736C168.988 8.736 167.884 9.824 167.884 11.136H173.052C173.052 9.824 172.06 8.736 170.524 8.736ZM178.911 11.152C180.367 11.504 182.015 11.744 182.015 13.76C182.015 15.248 180.655 16.224 178.799 16.224C176.303 16.224 175.151 15.04 175.071 13.28H176.351C176.431 14.192 176.751 15.104 178.799 15.104C180.191 15.104 180.735 14.384 180.735 13.84C180.735 12.656 179.663 12.592 178.495 12.304C177.247 12 175.391 11.856 175.391 9.936C175.391 8.656 176.527 7.616 178.447 7.616C180.479 7.616 181.567 8.768 181.695 10.176H180.415C180.287 9.552 179.983 8.736 178.447 8.736C177.295 8.736 176.671 9.2 176.671 9.84C176.671 10.8 177.775 10.88 178.911 11.152Z" fill="#183754"/>
<line x1="193.5" y1="2.18557e-08" x2="193.5" y2="19" stroke="#183754"/>
<path d="M212.424 7.44C212.424 8.848 211.592 9.488 210.648 9.808V9.84C211.848 10.048 212.872 10.96 212.872 12.672C212.872 14.784 211.368 16 209 16H204.072V4.56H208.68C211.016 4.56 212.424 5.664 212.424 7.44ZM205.512 9.344H208.904C210.536 9.344 210.984 8.64 210.984 7.6C210.984 6.56 210.376 5.84 209.064 5.84H205.512V9.344ZM205.512 10.624V14.72H209.144C210.984 14.72 211.432 13.744 211.432 12.672C211.432 11.44 210.664 10.624 209.464 10.624H205.512ZM217.745 7.616C218.049 7.616 218.273 7.632 218.497 7.664V8.944H218.465C216.689 8.656 215.457 9.904 215.457 11.648V16H214.177V7.84H215.457V9.456H215.489C215.921 8.384 216.577 7.616 217.745 7.616ZM224.341 9.92C224.341 9.28 223.989 8.736 222.677 8.736C221.125 8.736 220.613 9.184 220.533 10.368H219.253C219.333 8.8 220.309 7.616 222.677 7.616C224.229 7.616 225.621 8.224 225.621 10.192V14.16C225.621 14.8 225.733 15.152 226.549 15.056V15.952C226.213 16.064 226.037 16.08 225.797 16.08C225.029 16.08 224.565 15.872 224.341 14.976H224.309C223.797 15.744 222.885 16.224 221.541 16.224C219.893 16.224 218.853 15.28 218.853 13.904C218.853 12.048 220.229 11.568 222.341 11.168C223.717 10.912 224.341 10.736 224.341 9.92ZM221.669 15.104C223.189 15.104 224.341 14.416 224.341 12.848V11.488C224.101 11.728 223.317 11.952 222.453 12.128C220.869 12.464 220.133 12.864 220.133 13.84C220.133 14.64 220.613 15.104 221.669 15.104ZM233.297 10.784C233.233 9.888 232.625 8.736 230.993 8.736C229.057 8.736 228.321 10.384 228.321 11.92C228.321 13.456 229.057 15.104 230.993 15.104C232.641 15.104 233.233 13.968 233.297 12.992H234.577C234.465 14.848 233.009 16.224 230.993 16.224C228.609 16.224 227.041 14.48 227.041 11.92C227.041 9.36 228.609 7.616 230.993 7.616C233.009 7.616 234.385 8.96 234.577 10.784H233.297ZM239.274 15.104C240.906 15.104 241.514 14.048 241.658 13.488H242.938C242.522 15.008 241.354 16.224 239.322 16.224C236.842 16.224 235.338 14.48 235.338 11.92C235.338 9.2 236.874 7.616 239.258 7.616C241.818 7.616 243.066 9.36 243.066 12.256H236.618C236.618 13.728 237.498 15.104 239.274 15.104ZM239.258 8.736C237.722 8.736 236.618 9.824 236.618 11.136H241.786C241.786 9.824 240.794 8.736 239.258 8.736ZM244.381 4.56H245.661V16H244.381V4.56ZM250.946 15.104C252.578 15.104 253.186 14.048 253.33 13.488H254.61C254.194 15.008 253.026 16.224 250.994 16.224C248.514 16.224 247.01 14.48 247.01 11.92C247.01 9.2 248.546 7.616 250.93 7.616C253.49 7.616 254.738 9.36 254.738 12.256H248.29C248.29 13.728 249.17 15.104 250.946 15.104ZM250.93 8.736C249.394 8.736 248.29 9.824 248.29 11.136H253.458C253.458 9.824 252.466 8.736 250.93 8.736ZM259.401 8.96H257.801V13.872C257.801 14.8 258.313 14.96 259.401 14.88V16C259.113 16.064 258.777 16.096 258.441 16.096C257.353 16.096 256.521 15.664 256.521 14V8.96H255.321V7.84H256.521V5.12H257.801V7.84H259.401V8.96ZM264.051 11.152C265.507 11.504 267.155 11.744 267.155 13.76C267.155 15.248 265.795 16.224 263.939 16.224C261.443 16.224 260.291 15.04 260.211 13.28H261.491C261.571 14.192 261.891 15.104 263.939 15.104C265.331 15.104 265.875 14.384 265.875 13.84C265.875 12.656 264.803 12.592 263.635 12.304C262.387 12 260.531 11.856 260.531 9.936C260.531 8.656 261.667 7.616 263.587 7.616C265.619 7.616 266.707 8.768 266.835 10.176H265.555C265.427 9.552 265.123 8.736 263.587 8.736C262.435 8.736 261.811 9.2 261.811 9.84C261.811 10.8 262.915 10.88 264.051 11.152Z" fill="#183754"/>
</svg>
