<svg width="1440" height="794" viewBox="0 0 1440 794" fill="none" xmlns="http://www.w3.org/2000/svg">
<path d="M-124.124 258.652C-118.758 239.139 -102.178 223.103 -79.232 224.947C-64.1835 226.14 -44.5743 232.46 -24.6857 239.524C-4.80541 246.586 15.353 254.39 31.4766 258.534C213.785 305.524 371.942 319.978 505.215 275.923C638.496 231.865 746.869 129.3 829.623 -57.6991C840.885 -83.1129 849.91 -111.517 859.193 -139.467C868.477 -167.42 878.02 -194.919 890.321 -218.535L890.34 -218.572L890.333 -218.613L890.237 -219.185C896.932 -232.025 909.422 -238.142 922.765 -238.924C936.124 -239.707 950.325 -235.14 960.388 -226.632C968.852 -219.465 972.464 -208.521 972.972 -195.533C973.479 -182.546 970.882 -167.533 966.946 -152.259C963.011 -136.985 957.74 -121.456 952.907 -107.437C948.075 -93.4209 943.678 -80.9071 941.496 -71.6734C899.58 106.975 898.712 312.865 1026.16 457.153C1099.7 540.36 1210.42 603.193 1328.83 652.96C1447.24 702.729 1573.36 739.437 1677.7 770.385C1687.17 773.189 1701.63 775.877 1717.78 779.271C1733.94 782.667 1751.8 786.771 1768.1 792.408C1784.4 798.046 1799.12 805.214 1809.02 814.73C1818.9 824.241 1823.97 836.095 1820.96 851.129C1816.56 872.74 1799.07 893.866 1775.28 891.973C1757.89 890.563 1733.03 882.753 1707.76 873.959C1682.5 865.169 1656.84 855.397 1637.88 850.078C1535.04 821.342 1376.58 771.796 1219.32 744.514C1140.69 730.872 1062.36 722.796 991.435 725.67C920.508 728.544 856.972 742.368 807.942 772.538C725.091 823.604 711.831 913.058 746.184 977.726L638.988 944.358C621.916 838.457 671.608 720.03 811.874 666.895C908.771 630.218 977.441 641.115 1074.84 636.178C1076.17 636.119 1077.53 636.182 1078.89 636.208C1080.25 636.234 1081.6 636.223 1082.86 636.012C1084.14 635.8 1085.33 635.388 1086.39 634.608C1087.45 633.827 1088.36 632.685 1089.06 631.026L1089.1 630.926L1089.01 630.87C920.745 529.565 816.222 340.922 825.835 143.975L825.847 143.75L825.649 143.859C816.38 149.005 808.62 157.646 801.34 167.053C794.052 176.468 787.25 186.641 779.877 194.9C662.912 325.965 510.458 401.708 332.669 395.584L332.56 395.58L332.541 395.687C332.21 397.46 332.327 398.921 332.762 400.165C333.196 401.408 333.943 402.427 334.861 403.32C335.778 404.212 336.869 404.982 337.99 405.728C339.113 406.475 340.265 407.196 341.321 407.997C433.458 478.924 516.347 521.319 565.261 636.43C609.812 741.119 581.772 841.539 519.112 907.335L411.919 873.968C462.021 848.299 497.137 794.623 493.691 729.963C491.459 688.778 472.133 649.188 442.329 612.133C412.523 575.078 372.233 540.551 328.057 509.492C239.703 447.373 135.786 399.112 69.0654 372.226C44.7811 362.48 11.9348 353.094 -19.7604 343.447C-51.4626 333.798 -82.0102 323.888 -101.721 313.095C-123.631 301.118 -129.489 278.163 -124.124 258.652Z" stroke="#3E6282" stroke-width="0.250507"/>
</svg>
