<svg width="1219" height="544" viewBox="0 0 1219 544" fill="none" xmlns="http://www.w3.org/2000/svg">
<path d="M548.601 71.5805C715.912 20.9944 874.149 -2.3546 994.723 0.777337C1055.01 2.3434 1105.86 10.5295 1143.7 25.2217C1181.56 39.9168 1206.32 61.085 1214.63 88.5635C1222.94 116.042 1214.05 147.385 1190.68 180.591C1167.31 213.791 1129.52 248.776 1080.2 283.483C981.558 352.894 836.892 421.129 669.581 471.715C502.27 522.301 344.033 545.649 223.459 542.517C163.169 540.951 112.325 532.765 74.4783 518.073C36.6249 503.378 11.8583 482.211 3.5501 454.732C-4.758 427.254 4.13201 395.91 27.5027 362.703C50.869 329.504 88.6605 294.519 137.983 259.811C236.624 190.4 381.29 122.167 548.601 71.5805Z" stroke="#3E6282"/>
</svg>
