<svg width="24" height="24" viewBox="0 0 24 24" fill="none" xmlns="http://www.w3.org/2000/svg">
<g clip-path="url(#clip0_12_6448)">
<mask id="mask0_12_6448" style="mask-type:luminance" maskUnits="userSpaceOnUse" x="0" y="0" width="24" height="24">
<path d="M24 0H0V24H24V0Z" fill="white"/>
</mask>
<g mask="url(#mask0_12_6448)">
<path d="M21.6328 14.75C21.6328 15.64 21.3828 16.48 20.9428 17.2C20.1228 18.58 18.6128 19.5 16.8828 19.5C15.1528 19.5 13.6428 18.57 12.8228 17.2C12.3828 16.49 12.1328 15.64 12.1328 14.75C12.1328 12.13 14.2628 10 16.8828 10C19.5028 10 21.6328 12.13 21.6328 14.75Z" stroke="#183754" stroke-width="1.5" stroke-miterlimit="10" stroke-linecap="round" stroke-linejoin="round"/>
<path d="M18.6633 14.7305H15.1133" stroke="#183754" stroke-width="1.5" stroke-miterlimit="10" stroke-linecap="round" stroke-linejoin="round"/>
<path d="M16.8828 13V16.55" stroke="#183754" stroke-width="1.5" stroke-miterlimit="10" stroke-linecap="round" stroke-linejoin="round"/>
<path d="M5.3325 2H18.6725C19.7825 2 20.6925 2.91002 20.6925 4.02002V6.23999C20.6925 7.04999 20.1825 8.06001 19.6825 8.57001L17.9225 10.12C17.5925 10.04 17.2425 10 16.8825 10C14.2625 10 12.1325 12.13 12.1325 14.75C12.1325 15.64 12.3825 16.48 12.8225 17.2C13.1925 17.82 13.7025 18.35 14.3225 18.73V19.07C14.3225 19.68 13.9225 20.49 13.4125 20.79L12.0025 21.7C10.6925 22.51 8.8725 21.6 8.8725 19.98V14.63C8.8725 13.92 8.4625 13.01 8.0625 12.51L4.2225 8.46997C3.7225 7.95997 3.3125 7.05001 3.3125 6.45001" stroke="#183754" stroke-width="1.5" stroke-miterlimit="10" stroke-linecap="round" stroke-linejoin="round"/>
</g>
</g>
<defs>
<clipPath id="clip0_12_6448">
<rect width="24" height="24" fill="white"/>
</clipPath>
</defs>
</svg>
