<svg width="28" height="28" viewBox="0 0 28 28" fill="none" xmlns="http://www.w3.org/2000/svg">
<g clip-path="url(#clip0_206_321)">
<mask id="mask0_206_321" style="mask-type:luminance" maskUnits="userSpaceOnUse" x="0" y="0" width="28" height="28">
<path d="M28 0H0V28H28V0Z" fill="white"/>
</mask>
<g mask="url(#mask0_206_321)">
<path d="M15.178 26.2509C14.478 26.2509 13.393 25.9126 12.3547 24.2092L10.3013 20.8842C10.103 20.5576 9.49632 20.2426 9.12299 20.2659L5.2263 20.4642C2.89297 20.5809 2.07635 19.6126 1.78468 19.0292C1.49301 18.4459 1.2363 17.1976 2.75297 15.4242L5.06301 12.7409C5.29635 12.4609 5.42464 11.8542 5.31964 11.5042L4.1413 7.73593C3.5463 5.84593 4.21131 4.83094 4.65464 4.38761C5.09797 3.94428 6.12464 3.30259 8.01464 3.93259L11.4563 5.06427C11.7714 5.16927 12.3547 5.07593 12.623 4.88927L16.2164 2.29927C17.8614 1.10927 19.0513 1.42427 19.5996 1.71593C20.1479 2.0076 21.0813 2.80094 21.0463 4.83094L20.9646 9.25259C20.9529 9.57925 21.2213 10.1159 21.4779 10.3143L24.3714 12.5076C25.9464 13.7092 26.0047 14.9109 25.8997 15.5292C25.7947 16.1476 25.328 17.2676 23.438 17.8509L19.6696 19.0292C19.3196 19.1342 18.8879 19.5892 18.7946 19.9392L17.8964 23.3692C17.3014 25.6209 16.1347 26.1226 15.4814 26.2159C15.3997 26.2392 15.2947 26.2509 15.178 26.2509ZM9.15795 18.5159C10.1613 18.5159 11.2696 19.1226 11.7829 19.9626L13.8363 23.2876C14.4196 24.2442 14.9446 24.5359 15.2246 24.4892C15.4929 24.4542 15.913 24.0109 16.2047 22.9376L17.1029 19.5076C17.3479 18.5742 18.2229 17.6526 19.1446 17.3726L22.913 16.1942C23.6364 15.9726 24.1029 15.6109 24.1729 15.2376C24.2429 14.8642 23.9163 14.3742 23.3096 13.9076L20.4164 11.7142C19.7047 11.1776 19.1914 10.1043 19.203 9.21759L19.2847 4.79591C19.2964 4.01424 19.1097 3.43094 18.7714 3.25594C18.433 3.08094 17.8614 3.25592 17.2197 3.71092L13.6263 6.30092C12.9146 6.81425 11.7364 7.00094 10.8847 6.72094L7.44299 5.58928C6.71966 5.35594 6.13635 5.36759 5.86801 5.63592C5.59968 5.90425 5.57629 6.48759 5.79795 7.21092L6.9763 10.9793C7.26797 11.9009 7.01129 13.1492 6.38129 13.8726L4.07131 16.5559C3.33631 17.4076 3.21964 18.0026 3.34798 18.2476C3.46464 18.4926 4.02468 18.7609 5.13301 18.7026L9.02964 18.5042C9.07631 18.5159 9.12295 18.5159 9.15795 18.5159Z" fill="#183754"/>
<path d="M25.5614 26.5418C25.3397 26.5418 25.1182 26.4602 24.9432 26.2852L21.408 22.7502C21.0697 22.4118 21.0697 21.8518 21.408 21.5135C21.7464 21.1752 22.3064 21.1752 22.6447 21.5135L26.1798 25.0485C26.5182 25.3868 26.5182 25.9468 26.1798 26.2852C26.0048 26.4602 25.783 26.5418 25.5614 26.5418Z" fill="#183754"/>
</g>
</g>
<defs>
<clipPath id="clip0_206_321">
<rect width="28" height="28" fill="white"/>
</clipPath>
</defs>
</svg>
