<svg width="28" height="28" viewBox="0 0 28 28" fill="none" xmlns="http://www.w3.org/2000/svg">
<g clip-path="url(#clip0_206_346)">
<mask id="mask0_206_346" style="mask-type:luminance" maskUnits="userSpaceOnUse" x="0" y="0" width="28" height="28">
<path d="M28 0H0V28H28V0Z" fill="white"/>
</mask>
<g mask="url(#mask0_206_346)">
<path d="M5.50763 14.5367C5.04096 14.5367 4.6443 14.2217 4.5393 13.7551L4.2943 12.6817C4.1893 12.2267 3.82763 11.8651 3.3843 11.7717L2.28763 11.5151C1.8443 11.4217 1.5293 11.0251 1.5293 10.5584C1.5293 10.0917 1.8443 9.69508 2.31096 9.59009L3.3843 9.34509C3.8393 9.24009 4.20096 8.87841 4.2943 8.43508L4.55096 7.33841C4.6443 6.89508 5.04096 6.58008 5.50763 6.58008C5.9743 6.58008 6.37096 6.90674 6.47596 7.36174L6.72096 8.43508C6.82596 8.89008 7.18763 9.25176 7.63096 9.34509L8.72763 9.60174C9.17096 9.69508 9.48596 10.0918 9.48596 10.5701C9.48596 11.0368 9.17096 11.4334 8.71596 11.5267L7.63096 11.7717C7.17596 11.8767 6.8143 12.2384 6.72096 12.6817L6.4643 13.7784C6.37096 14.2217 5.9743 14.5367 5.50763 14.5367ZM4.8543 10.5701C5.11096 10.7568 5.33263 10.9784 5.5193 11.2351C5.70596 10.9784 5.92763 10.7568 6.1843 10.5701C5.92763 10.3834 5.70596 10.1617 5.5193 9.90508C5.33263 10.1617 5.11096 10.3834 4.8543 10.5701Z" fill="#183754"/>
<path d="M23.1366 9.47361C22.9149 9.47361 22.6933 9.39194 22.5183 9.21694C22.1799 8.87861 22.1799 8.31861 22.5183 7.98027L24.0933 6.40527C24.5483 5.95027 24.5483 5.22694 24.0933 4.77194C23.6383 4.31694 22.9149 4.31694 22.4599 4.77194L20.8849 6.34694C20.5466 6.68527 19.9866 6.68527 19.6483 6.34694C19.3099 6.00861 19.3099 5.44861 19.6483 5.11027L21.2233 3.53527C22.3549 2.40361 24.1983 2.40361 25.3299 3.53527C26.4616 4.66694 26.4616 6.51027 25.3299 7.64194L23.7549 9.21694C23.5799 9.39194 23.3583 9.47361 23.1366 9.47361Z" fill="#183754"/>
<path d="M5.36836 26.5301C4.59836 26.5301 3.81669 26.2384 3.23336 25.6434C2.05503 24.4651 2.05503 22.5517 3.23336 21.3734L12.0884 12.5184C12.4267 12.1801 12.9867 12.1801 13.3251 12.5184C13.6634 12.8567 13.6634 13.4167 13.3251 13.7551L4.47003 22.6101C3.98003 23.1001 3.98003 23.9167 4.47003 24.4067C4.96003 24.8967 5.76503 24.8967 6.26669 24.4067L15.1217 15.5517C15.4601 15.2134 16.0201 15.2134 16.3584 15.5517C16.6967 15.8901 16.6967 16.4501 16.3584 16.7884L7.50336 25.6434C6.92003 26.2267 6.13836 26.5301 5.36836 26.5301Z" fill="#183754"/>
<path d="M25.2359 21.6065C24.6759 21.6065 24.1393 21.3965 23.7426 20.9881L19.0876 16.3331L18.3643 17.0565C17.6409 17.8265 16.2059 17.8615 15.4009 17.0565L11.8543 13.5098C11.0376 12.6931 11.0376 11.3515 11.8543 10.5348L12.5659 9.82317L7.89922 5.15651C7.32755 4.60817 7.12922 3.74484 7.38589 2.98651C7.64255 2.22817 8.29589 1.67984 9.08922 1.56317C11.6793 1.18984 14.3159 2.06484 16.1709 3.91984L17.3143 5.06317L17.5943 4.78317C18.4109 3.96651 19.7526 3.96651 20.5693 4.78317L24.1159 8.32984C24.5009 8.69151 24.7343 9.23984 24.7343 9.81151C24.7343 10.3832 24.5126 10.8965 24.1159 11.2932L23.8359 11.5732L24.9793 12.7165C26.8343 14.5715 27.7093 17.2081 27.3359 19.7981C27.2193 20.5915 26.6709 21.2448 25.9126 21.5015C25.6909 21.5715 25.4576 21.6065 25.2359 21.6065ZM19.0876 14.2215C19.3093 14.2215 19.5309 14.3031 19.6943 14.4665L24.9793 19.7515C25.0843 19.8565 25.2243 19.8798 25.3643 19.8448C25.4809 19.7981 25.5859 19.6931 25.5976 19.5532C25.8893 17.5231 25.2009 15.4232 23.7309 13.9648L21.9693 12.2031C21.8059 12.0398 21.7126 11.8182 21.7126 11.5848C21.7126 11.3515 21.8059 11.1298 21.9693 10.9665L22.8676 10.0682C22.9376 9.99817 22.9726 9.91651 22.9726 9.82317C22.9726 9.72984 22.9376 9.64817 22.8793 9.58984L19.3209 6.03151C19.1809 5.89151 18.9593 5.89151 18.8193 6.03151L17.9209 6.92984C17.5943 7.25651 17.0109 7.25651 16.6843 6.92984L14.9226 5.16817C13.4526 3.69817 11.3642 3.00984 9.33422 3.30151C9.19422 3.32484 9.07755 3.41817 9.03089 3.55817C8.98422 3.68651 9.03089 3.82651 9.11255 3.91984L14.4093 9.21651C14.7476 9.55484 14.7476 10.1148 14.4093 10.4532L13.0793 11.7832C12.9393 11.9232 12.9393 12.1448 13.0793 12.2848L16.6259 15.8315C16.7659 15.9715 16.9876 15.9598 17.1043 15.8431L18.3876 14.5598C18.4809 14.4431 18.5976 14.3498 18.7376 14.2915C18.8543 14.2448 18.9709 14.2215 19.0876 14.2215Z" fill="#183754"/>
</g>
</g>
<defs>
<clipPath id="clip0_206_346">
<rect width="28" height="28" fill="white"/>
</clipPath>
</defs>
</svg>
