<svg width="28" height="28" viewBox="0 0 28 28" fill="none" xmlns="http://www.w3.org/2000/svg">
<g clip-path="url(#clip0_206_332)">
<mask id="mask0_206_332" style="mask-type:luminance" maskUnits="userSpaceOnUse" x="0" y="0" width="28" height="28">
<path d="M28 0H0V28H28V0Z" fill="white"/>
</mask>
<g mask="url(#mask0_206_332)">
<path d="M5.83271 25.5157C4.96937 25.5157 4.11771 25.1891 3.46438 24.5357C2.83438 23.9057 2.48438 23.0657 2.48438 22.1674C2.48438 21.2691 2.83438 20.4291 3.46438 19.7991L18.6311 4.63234C19.9377 3.32568 22.0611 3.32568 23.3677 4.63234C23.9977 5.26234 24.3477 6.10234 24.3477 7.00068C24.3477 7.89901 23.9977 8.73901 23.3677 9.36901L8.20104 24.5357C7.54771 25.1891 6.69604 25.5157 5.83271 25.5157ZM20.9994 5.40234C20.5911 5.40234 20.1827 5.55401 19.8677 5.86901L4.70104 21.0357C4.39771 21.3391 4.23438 21.7357 4.23438 22.1674C4.23438 22.5991 4.39771 22.9957 4.70104 23.2991C5.31938 23.9174 6.34604 23.9174 6.96438 23.2991L22.1311 8.13234C22.4344 7.82901 22.5977 7.43234 22.5977 7.00068C22.5977 6.56901 22.4344 6.17234 22.1311 5.86901C21.8161 5.55401 21.4077 5.40234 20.9994 5.40234Z" fill="#183754"/>
<path d="M21.0108 11.3633C20.7891 11.3633 20.5674 11.2816 20.3924 11.1066L16.8924 7.60663C16.5541 7.26829 16.5541 6.70829 16.8924 6.36996C17.2308 6.03163 17.7908 6.03163 18.1291 6.36996L21.6291 9.86996C21.9674 10.2083 21.9674 10.7683 21.6291 11.1066C21.4541 11.2816 21.2324 11.3633 21.0108 11.3633Z" fill="#183754"/>
<path d="M11.6663 6.41559C11.6079 6.41559 11.5612 6.40392 11.5029 6.39225L9.91624 5.92559L8.32957 6.39225C8.11957 6.4506 7.89791 6.39225 7.75791 6.24059C7.60624 6.08892 7.54791 5.87893 7.60624 5.66893L8.07291 4.08225L7.60624 2.49559C7.54791 2.28559 7.60624 2.06392 7.75791 1.92392C7.90957 1.77225 8.13124 1.71392 8.32957 1.77225L9.91624 2.23892L11.5029 1.77225C11.713 1.71392 11.923 1.77225 12.0746 1.92392C12.2263 2.07559 12.2846 2.29725 12.2263 2.49559L11.7596 4.08225L12.2263 5.66893C12.2846 5.87893 12.2263 6.10059 12.0746 6.24059C11.9696 6.35725 11.818 6.41559 11.6663 6.41559ZM9.91624 4.73559C9.97457 4.73559 10.0212 4.74725 10.0796 4.75892L10.8029 4.96893L10.5929 4.2456C10.5579 4.1406 10.5579 4.02392 10.5929 3.91892L10.8029 3.19559L10.0796 3.40559C9.97457 3.44059 9.85791 3.44059 9.75291 3.40559L9.02957 3.19559L9.23957 3.91892C9.27457 4.02392 9.27457 4.1406 9.23957 4.2456L9.02957 4.96893L9.75291 4.75892C9.81124 4.74725 9.8579 4.73559 9.91624 4.73559Z" fill="#183754"/>
<path d="M7.00022 13.4156C6.94189 13.4156 6.89522 13.404 6.83689 13.3923L5.25022 12.9256L3.66356 13.3923C3.45356 13.4506 3.24356 13.3923 3.09189 13.2406C2.94022 13.089 2.88189 12.8673 2.94022 12.669L3.40689 11.0823L2.94022 9.4956C2.88189 9.2856 2.94022 9.06392 3.09189 8.92392C3.24356 8.78392 3.46522 8.71392 3.66356 8.77225L5.25022 9.23892L6.83689 8.77225C7.03522 8.71392 7.25689 8.77225 7.40856 8.92392C7.56022 9.07559 7.61856 9.29727 7.56022 9.4956L7.09356 11.0823L7.56022 12.669C7.61856 12.879 7.56022 13.1006 7.40856 13.2406C7.30356 13.3573 7.15189 13.4156 7.00022 13.4156ZM5.25022 11.7356C5.30856 11.7356 5.35522 11.7473 5.41356 11.759L6.13689 11.969L5.92689 11.2456C5.89189 11.1406 5.89189 11.0239 5.92689 10.9189L6.13689 10.1956L5.41356 10.4056C5.30856 10.4406 5.19189 10.4406 5.08689 10.4056L4.36356 10.1956L4.57356 10.9189C4.60856 11.0239 4.60856 11.1406 4.57356 11.2456L4.36356 11.969L5.08689 11.759C5.14522 11.7473 5.19189 11.7356 5.25022 11.7356Z" fill="#183754"/>
<path d="M24.5002 19.2486C24.4419 19.2486 24.3952 19.2369 24.3369 19.2253L22.7502 18.7586L21.1636 19.2253C20.9536 19.2836 20.7436 19.2253 20.5919 19.0736C20.4402 18.9219 20.3819 18.7003 20.4402 18.5019L20.9069 16.9153L20.4402 15.3286C20.3819 15.1186 20.4402 14.8969 20.5919 14.7569C20.7436 14.6169 20.9652 14.5469 21.1636 14.6053L22.7502 15.0719L24.3369 14.6053C24.5352 14.5469 24.7569 14.6053 24.9086 14.7569C25.0602 14.9086 25.1186 15.1303 25.0602 15.3286L24.5936 16.9153L25.0602 18.5019C25.1186 18.7119 25.0602 18.9336 24.9086 19.0736C24.8036 19.1903 24.6519 19.2486 24.5002 19.2486ZM22.7502 17.5686C22.8086 17.5686 22.8552 17.5803 22.9136 17.5919L23.6369 17.8019L23.4269 17.0786C23.3919 16.9736 23.3919 16.8569 23.4269 16.7519L23.6369 16.0286L22.9136 16.2386C22.8086 16.2736 22.6919 16.2736 22.5869 16.2386L21.8636 16.0286L22.0736 16.7519C22.1086 16.8569 22.1086 16.9736 22.0736 17.0786L21.8636 17.8019L22.5869 17.5919C22.6452 17.5803 22.6919 17.5686 22.7502 17.5686Z" fill="#183754"/>
</g>
</g>
<defs>
<clipPath id="clip0_206_332">
<rect width="28" height="28" fill="white"/>
</clipPath>
</defs>
</svg>
