<svg width="369" height="44" viewBox="0 0 369 44" fill="none" xmlns="http://www.w3.org/2000/svg">
<path d="M0 42.432V1.69052H11.1011C15.1207 1.69052 18.5393 2.31037 21.3569 3.55008C24.212 4.7898 26.5036 6.42397 28.2316 8.45258C29.9597 10.4812 31.2182 12.7352 32.0071 15.2147C32.8336 17.6565 33.2468 20.0984 33.2468 22.5402C33.2468 25.6207 32.7021 28.3819 31.6127 30.8238C30.5608 33.2656 29.0957 35.3506 27.2173 37.0787C25.339 38.8068 23.1789 40.1404 20.737 41.0796C18.3327 41.9812 15.7782 42.432 13.0733 42.432H0ZM5.46601 37.1914H12.0027C14.2567 37.1914 16.3229 36.8533 18.2012 36.1771C20.1172 35.5009 21.7701 34.5241 23.1601 33.2468C24.5876 31.9696 25.6959 30.4105 26.4848 28.5697C27.2737 26.6914 27.6681 24.5688 27.6681 22.2021C27.6681 19.6851 27.2549 17.4875 26.4284 15.6091C25.6019 13.6932 24.4749 12.0966 23.0474 10.8193C21.6198 9.54203 20.0045 8.58407 18.2012 7.94543C16.398 7.26922 14.5009 6.93112 12.5098 6.93112H5.46601V37.1914Z" fill="#183754"/>
<path d="M42.428 1.69052H47.894V42.432H42.428V1.69052Z" fill="#183754"/>
<path d="M55.5401 42.432L73.3469 0H73.685L91.4354 42.432H85.1805L71.8818 8.56529L75.7699 6.02951L60.8934 42.432H55.5401ZM65.9649 26.9919H81.1232L82.9265 31.7254H64.3871L65.9649 26.9919Z" fill="#183754"/>
<path d="M99.1088 42.432V0.394452H99.1651L120.522 30.7111L118.212 30.2603L139.512 0.394452H139.625V42.432H134.215V12.7916L134.553 15.5528L119.17 37.3041H119.057L103.448 15.5528L104.406 13.017V42.432H99.1088Z" fill="#183754"/>
<path d="M151.332 1.69052H177.817V6.93112H156.798V19.3282H175.563V24.5688H156.798V37.1914H178.606V42.432H151.332V1.69052Z" fill="#183754"/>
<path d="M223.367 43.728L191.868 11.7773L193.445 12.1717L193.558 42.432H188.092V0.450802H188.374L219.536 32.5143L218.24 32.2325L218.127 1.69052H223.537V43.728H223.367Z" fill="#183754"/>
<path d="M256.328 8.95974C254.938 8.24597 253.416 7.62611 251.763 7.10017C250.11 6.57423 248.495 6.31126 246.917 6.31126C244.738 6.31126 242.991 6.81842 241.677 7.83273C240.399 8.84704 239.761 10.1995 239.761 11.89C239.761 13.1672 240.174 14.2567 241 15.1583C241.827 16.0223 242.916 16.7737 244.269 17.4123C245.621 18.051 247.03 18.652 248.495 19.2155C249.772 19.7039 251.031 20.2486 252.27 20.8497C253.51 21.4508 254.618 22.2021 255.595 23.1037C256.609 24.0053 257.398 25.1136 257.962 26.4284C258.563 27.7433 258.863 29.3774 258.863 31.3309C258.863 33.4722 258.319 35.4257 257.229 37.1914C256.177 38.957 254.656 40.347 252.665 41.3613C250.674 42.3756 248.307 42.8828 245.565 42.8828C243.762 42.8828 242.033 42.6762 240.381 42.2629C238.765 41.8497 237.262 41.3238 235.872 40.6851C234.482 40.0089 233.243 39.3139 232.153 38.6001L234.576 34.3175C235.478 34.9561 236.511 35.576 237.676 36.1771C238.84 36.7406 240.061 37.2102 241.338 37.5858C242.616 37.9239 243.855 38.093 245.058 38.093C246.335 38.093 247.593 37.8676 248.833 37.4168C250.11 36.9284 251.162 36.1959 251.989 35.2191C252.815 34.2424 253.228 32.9463 253.228 31.3309C253.228 29.9409 252.853 28.7951 252.101 27.8935C251.388 26.9544 250.43 26.1654 249.228 25.5268C248.025 24.8506 246.748 24.2495 245.396 23.7236C244.118 23.2352 242.822 22.7093 241.508 22.1458C240.193 21.5447 238.972 20.8309 237.845 20.0045C236.718 19.1404 235.816 18.0885 235.14 16.8488C234.464 15.6091 234.126 14.1064 234.126 12.3408C234.126 10.1995 234.633 8.33988 235.647 6.76207C236.699 5.14668 238.126 3.88819 239.93 2.98658C241.733 2.0474 243.799 1.54025 246.128 1.46511C248.758 1.46511 251.068 1.78443 253.059 2.42307C255.088 3.06171 256.872 3.83184 258.413 4.73345L256.328 8.95974Z" fill="#183754"/>
<path d="M268.05 1.69052H273.516V42.432H268.05V1.69052Z" fill="#183754"/>
<path d="M282.684 22.0894C282.684 19.2719 283.21 16.6234 284.262 14.144C285.351 11.627 286.854 9.41055 288.77 7.49463C290.686 5.54114 292.883 4.01967 295.363 2.93023C297.88 1.80322 300.585 1.23971 303.477 1.23971C306.332 1.23971 309 1.80322 311.479 2.93023C313.996 4.01967 316.213 5.54114 318.128 7.49463C320.082 9.41055 321.603 11.627 322.693 14.144C323.782 16.6234 324.327 19.2719 324.327 22.0894C324.327 24.9821 323.782 27.6869 322.693 30.2039C321.603 32.7209 320.101 34.9374 318.185 36.8533C316.269 38.7316 314.052 40.2155 311.535 41.305C309.018 42.3568 306.332 42.8828 303.477 42.8828C300.585 42.8828 297.88 42.3568 295.363 41.305C292.883 40.2531 290.686 38.788 288.77 36.9096C286.854 35.0313 285.351 32.8336 284.262 30.3166C283.21 27.7996 282.684 25.0572 282.684 22.0894ZM288.319 22.1458C288.319 24.2871 288.713 26.2969 289.502 28.1753C290.291 30.0161 291.381 31.6502 292.771 33.0778C294.161 34.5053 295.776 35.6323 297.617 36.4588C299.458 37.2477 301.449 37.6422 303.59 37.6422C305.694 37.6422 307.666 37.2477 309.507 36.4588C311.348 35.6323 312.944 34.5053 314.297 33.0778C315.649 31.6502 316.72 30.0161 317.509 28.1753C318.298 26.2969 318.692 24.2683 318.692 22.0894C318.692 19.9481 318.298 17.9383 317.509 16.0599C316.72 14.144 315.63 12.4723 314.24 11.0447C312.85 9.61716 311.235 8.50893 309.394 7.72003C307.553 6.89355 305.581 6.48032 303.477 6.48032C301.336 6.48032 299.345 6.89355 297.504 7.72003C295.663 8.5465 294.048 9.67351 292.658 11.1011C291.268 12.5286 290.197 14.2003 289.446 16.1163C288.695 17.9946 288.319 20.0045 288.319 22.1458Z" fill="#183754"/>
<path d="M368.811 43.728L337.311 11.7773L338.889 12.1717L339.002 42.432H333.536V0.450802H333.818L364.98 32.5143L363.683 32.2325L363.571 1.69052H368.98V43.728H368.811Z" fill="#183754"/>
</svg>
